<svg width="30" height="32" viewBox="0 0 30 32" fill="none" xmlns="http://www.w3.org/2000/svg">
<path d="M28.3327 6.95632L17.3192 0.61766C16.6144 0.213071 15.8143 0 14.9996 0C14.185 0 13.3848 0.213071 12.68 0.61766L1.66731 6.95632C1.62393 6.98153 1.58796 7.01753 1.56297 7.06075C1.53797 7.10398 1.52482 7.15292 1.52482 7.20273C1.52482 7.25254 1.53797 7.30148 1.56297 7.3447C1.58796 7.38793 1.62393 7.42393 1.66731 7.44913L14.8558 15.1327C14.9001 15.1585 14.9507 15.1722 15.0022 15.1722C15.0536 15.1722 15.1042 15.1585 15.1486 15.1327L28.3341 7.44913C28.3774 7.4238 28.4133 7.3877 28.4382 7.3444C28.463 7.30111 28.476 7.25213 28.4759 7.20232C28.4757 7.15251 28.4625 7.1036 28.4373 7.06045C28.4122 7.0173 28.3761 6.98141 28.3327 6.95632ZM15 8.57259C14.0445 8.57259 13.2692 8.06122 13.2692 7.42985C13.2692 6.79848 14.0445 6.2871 15 6.2871C15.9555 6.2871 16.7308 6.79848 16.7308 7.42985C16.7308 8.06122 15.9555 8.57259 15 8.57259ZM13.7019 17.0582L0.432692 9.39251C0.388862 9.36745 0.339146 9.35425 0.288535 9.35424C0.237925 9.35423 0.188202 9.3674 0.144359 9.39244C0.100516 9.41748 0.0640962 9.4535 0.0387572 9.49689C0.0134183 9.54028 5.18809e-05 9.58951 0 9.63963V22.0613C0.00108873 22.6598 0.160362 23.2475 0.46198 23.7662C0.763598 24.2848 1.19705 24.7162 1.71923 25.0174L13.4135 31.9617C13.4573 31.9868 13.507 32 13.5576 32C13.6082 32 13.6579 31.9868 13.7018 31.9618C13.7456 31.9368 13.7821 31.9007 13.8074 31.8573C13.8327 31.814 13.8461 31.7647 13.8462 31.7146V17.3053C13.8461 17.2552 13.8327 17.206 13.8074 17.1626C13.7821 17.1193 13.7457 17.0832 13.7019 17.0582ZM3.46154 23.9997C2.82404 23.9997 2.30769 23.2319 2.30769 22.2855C2.30769 21.3392 2.82404 20.5714 3.46154 20.5714C4.09904 20.5714 4.61538 21.3392 4.61538 22.2855C4.61538 23.2319 4.09904 23.9997 3.46154 23.9997ZM10.3846 21.7142C9.74711 21.7142 9.23077 20.9464 9.23077 20C9.23077 19.0537 9.74711 18.2859 10.3846 18.2859C11.0221 18.2859 11.5385 19.0537 11.5385 20C11.5385 20.9464 11.0221 21.7142 10.3846 21.7142ZM29.5673 9.39466L16.2981 17.1118C16.2544 17.1367 16.2181 17.1727 16.1927 17.2159C16.1674 17.2591 16.154 17.3082 16.1538 17.3582V31.7132C16.1539 31.7633 16.1673 31.8125 16.1926 31.8559C16.2179 31.8993 16.2544 31.9353 16.2982 31.9604C16.342 31.9854 16.3918 31.9986 16.4424 31.9986C16.493 31.9986 16.5427 31.9854 16.5865 31.9603L28.28 25.016C28.8021 24.715 29.2356 24.2838 29.5373 23.7655C29.8391 23.2471 29.9986 22.6596 30 22.0613V9.64392C30.0003 9.59361 29.9872 9.54411 29.9621 9.50042C29.9369 9.45674 29.9005 9.42041 29.8566 9.39512C29.8127 9.36982 29.7628 9.35646 29.712 9.35638C29.6612 9.3563 29.6113 9.3695 29.5673 9.39466ZM19.6154 27.9993C18.9779 27.9993 18.4615 27.2315 18.4615 26.2851C18.4615 25.3388 18.9779 24.571 19.6154 24.571C20.2529 24.571 20.7692 25.3388 20.7692 26.2851C20.7692 27.2315 20.2529 27.9993 19.6154 27.9993ZM19.6154 21.7142C18.9779 21.7142 18.4615 20.9464 18.4615 20C18.4615 19.0537 18.9779 18.2859 19.6154 18.2859C20.2529 18.2859 20.7692 19.0537 20.7692 20C20.7692 20.9464 20.2529 21.7142 19.6154 21.7142ZM26.5385 23.9997C25.901 23.9997 25.3846 23.2319 25.3846 22.2855C25.3846 21.3392 25.901 20.5714 26.5385 20.5714C27.176 20.5714 27.6923 21.3392 27.6923 22.2855C27.6923 23.2319 27.176 23.9997 26.5385 23.9997ZM26.5385 17.7146C25.901 17.7146 25.3846 16.9468 25.3846 16.0004C25.3846 15.0541 25.901 14.2863 26.5385 14.2863C27.176 14.2863 27.6923 15.0541 27.6923 16.0004C27.6923 16.9468 27.176 17.7146 26.5385 17.7146Z" fill="white"/>
</svg>
